<svg xmlns="http://www.w3.org/2000/svg" viewBox="0 0 1172.72 309.65"><defs><style>.cls-1{fill:#fff;}</style></defs><g id="Layer_2" data-name="Layer 2"><g id="Layer_1-2" data-name="Layer 1"><path class="cls-1" d="M188.35,170.54v75.51c0,26.26,2.05,43.08,5.75,57H142.39a119,119,0,0,1-2.87-27.9h-.82C123.11,297.34,99.72,308,71,308c-44.32,0-71-27.09-71-63.2,0-34.06,20.52-57,80.84-66.48,15.59-2.46,39-4.92,52.11-5.74v-7.38c0-26.27-13.95-36.94-34-36.94-21.34,0-33.65,11.9-34.47,31.6H8.62c2.05-39.8,30.77-71.81,90.28-71.81C158,88.06,188.35,116,188.35,170.54ZM133,207.47c-12.31.82-29.54,2.46-41.85,4.51-23.8,4.11-33.65,11.91-33.65,28.73C57.45,256.3,68.12,267,88.23,267c11.9,0,24.62-3.69,32.83-11.9,9.84-9.85,11.89-20.93,11.89-39.8Zm108.73,95.61V94.62h57.45V303.08Zm63-270.25A32.83,32.83,0,1,1,271.88,0,32.82,32.82,0,0,1,304.7,32.83Zm418.54,0A32.83,32.83,0,1,1,690.41,0,32.82,32.82,0,0,1,723.24,32.83ZM530.55,75.75c0-45.55,24.21-68.12,68.94-68.12a137.78,137.78,0,0,1,28.31,3.28V51.54a36.57,36.57,0,0,0-10.26-1.23c-20.1,0-30.36,8.61-30.36,32.41v11.9h39.39V137.3H587.18V303.08H530.55V137.3H496.08V94.62h34.47ZM717.26,94.62V303.08H659.81V94.62Zm95.18,208.46L742.27,94.62h59.91l24.21,82.07c8.62,29.55,16.42,59.91,23,90.28h.82c6.57-30.37,14.36-60.73,23-90.28l24.21-82.07h59.91L887.13,303.08Zm298.73-63.19h58.68c-8.21,38.16-44.32,69.76-99.72,69.76-65.66,0-103.82-46-103.82-112.44,0-61.55,38.16-109.15,103.41-109.15,48,0,83.3,27.08,96.43,69.35,4.52,14.36,6.57,30.36,6.57,53.34H1022.94c1.64,43.09,22.57,58.27,47.19,58.27C1093.11,269,1108.29,256.71,1111.17,239.89Zm-87-65.25h91.1c-3.69-31.59-22.57-46-45.55-46C1046.33,128.68,1028.68,143.05,1024.17,174.64ZM477,92.25a79.53,79.53,0,0,0-11.31-.91c-24.63,0-43.09,10.26-57,32.83h-.82V94.62H354.93V303.08h57.45V204.6c0-41,18.87-63.2,54.17-63.2a76.25,76.25,0,0,1,10.49.82Z"/></g></g></svg>