<svg id="Layer_1" data-name="Layer 1" xmlns="http://www.w3.org/2000/svg" xmlns:xlink="http://www.w3.org/1999/xlink" viewBox="0 0 1209 342"><defs><style>.cls-1{fill:url(#linear-gradient);}</style><linearGradient id="linear-gradient" x1="19.48" y1="172.48" x2="1192.2" y2="172.48" gradientUnits="userSpaceOnUse"><stop offset="0.05" stop-color="#c734ba"/><stop offset="0.45" stop-color="#e73c91"/><stop offset="0.52" stop-color="#ed3e89"/><stop offset="0.67" stop-color="#ed3e89"/><stop offset="0.9" stop-color="#eb3d87"/></linearGradient></defs><path class="cls-1" d="M207.84,188.19V263.7c0,26.26,2,43.09,5.74,57h-51.7A118.59,118.59,0,0,1,159,292.83h-.82c-15.59,22.16-39,32.83-67.7,32.83-44.32,0-71-27.08-71-63.19,0-34.06,20.52-57,80.84-66.48,15.6-2.46,39-4.92,52.12-5.74v-7.39c0-26.26-13.95-36.93-34.06-36.93-21.34,0-33.65,11.89-34.47,31.59H28.1c2-39.8,30.78-71.81,90.28-71.81C177.47,105.71,207.84,133.62,207.84,188.19Zm-55.4,36.94c-12.31.82-29.55,2.46-41.86,4.51-23.8,4.1-33.65,11.9-33.65,28.72,0,15.6,10.67,26.27,30.78,26.27,11.9,0,24.62-3.7,32.83-11.91,9.85-9.84,11.9-20.92,11.9-39.8Zm108.73,95.61V112.28h57.45V320.74Zm63-270.26a32.83,32.83,0,1,1-32.83-32.82A32.83,32.83,0,0,1,324.19,50.48Zm418.53,0a32.83,32.83,0,1,1-32.83-32.82A32.83,32.83,0,0,1,742.72,50.48ZM550,93.4c0-45.55,24.21-68.12,68.94-68.12a137.23,137.23,0,0,1,28.32,3.29V69.19A37,37,0,0,0,637,68c-20.11,0-30.37,8.62-30.37,32.42v11.9h39.39V155H606.66V320.74H550V155H515.56V112.28H550Zm186.71,18.88V320.74H679.29V112.28Zm95.18,208.46L761.75,112.28h59.92l24.21,82.07c8.61,29.54,16.41,59.91,23,90.28h.82c6.56-30.37,14.36-60.74,23-90.28l24.21-82.07h59.91L906.61,320.74Zm298.73-63.19h58.68c-8.21,38.16-44.32,69.75-99.72,69.75-65.65,0-103.82-46-103.82-112.43,0-61.56,38.17-109.16,103.41-109.16,48,0,83.31,27.09,96.44,69.35,4.51,14.36,6.56,30.37,6.56,53.35H1042.42c1.64,43.08,22.57,58.27,47.19,58.27C1112.59,286.68,1127.78,274.37,1130.65,257.55Zm-87-65.25h91.09c-3.69-31.6-22.56-46-45.55-46C1065.82,146.34,1048.17,160.7,1043.66,192.3ZM496.52,109.91a78.06,78.06,0,0,0-11.31-.92c-24.62,0-43.09,10.26-57,32.83h-.82V112.28H374.41V320.74h57.45V222.25c0-41,18.88-63.19,54.17-63.19a76.13,76.13,0,0,1,10.49.82Z"/></svg>